<?xml version="1.0" encoding="UTF-8" standalone="no"?> <svg id="Layer_1" data-name="Layer 1" xmlns="http://www.w3.org/2000/svg" viewBox="0 0 512 512"><title>apple</title><rect width="512" height="512" fill="#fbc132"/><path d="M263.9,181.49c6.2-10.36,16-28.31,28.44-42.56,10.5-12.07,31.07-27.58,31.07-27.58,3.09-2.33,2.75-5.58-.76-7.22L297.79,92.52a9.07,9.07,0,0,0-10.62,2.66s-18.39,29.51-40,85.65c-66.94-46.16-139.93,9-139.93,82.71,0,38.71,16.36,78.77,38.17,110.22,12.29,17.72,28.15,36,47.06,46.75,9.4,5.37,20.26,9.82,31.18,7.28,11.48-2.66,21.23-16.9,32.36-18.18,10.38-1.2,18.3,15.17,27.95,18.27,35.37,11.32,73.28-35.12,88.73-59.91,19-30.42,32.14-68.35,32.14-104.42C404.79,189.17,333,137.34,263.9,181.49Z" fill="#fff"/><path d="M245.56,151.34a7.69,7.69,0,0,0,6.77-6.8s2.21-26.84-16.5-45.58-45.57-16.49-45.57-16.49a7.7,7.7,0,0,0-6.78,6.78s-2.25,26.86,16.49,45.59S245.56,151.34,245.56,151.34Z" fill="#fff"/></svg>